
<global>
ampeg_release=1.25
</global>

<group>
group_label=RR1
seq_length=4
seq_position=1

<region>
end=57600
hivel=42
key=G3
lovel=0
offset=8848
sample=Basstrombone_staccato_PP_G3_RR1.opus
tune=-16
</region>

<region>
end=57600
hivel=42
key=G2
lovel=0
offset=11367
sample=Basstrombone_staccato_PP_G2_RR1.opus
tune=-21
</region>

<region>
end=57600
hivel=42
key=G1
lovel=0
offset=15182
sample=Basstrombone_staccato_PP_G1_RR1.opus
tune=-17
</region>

<region>
end=57600
hivel=42
key=G#3
lovel=0
offset=10724
sample=Basstrombone_staccato_PP_G#3_RR1.opus
tune=-13
</region>

<region>
end=57600
hivel=42
key=G#2
lovel=0
offset=9755
sample=Basstrombone_staccato_PP_G#2_RR1.opus
tune=-22
</region>

<region>
end=57600
hivel=42
key=G#1
lovel=0
offset=12767
sample=Basstrombone_staccato_PP_G#1_RR1.opus
tune=-6
</region>

<region>
end=57600
hivel=42
key=F3
lovel=0
offset=9241
sample=Basstrombone_staccato_PP_F3_RR1.opus
tune=-18
</region>

<region>
end=57600
hivel=42
key=F2
lovel=0
offset=9178
sample=Basstrombone_staccato_PP_F2_RR1.opus
tune=+2
</region>

<region>
end=57600
hivel=42
key=F1
lovel=0
offset=9305
sample=Basstrombone_staccato_PP_F1_RR1.opus
tune=+33
</region>

<region>
end=57600
hivel=42
key=F#3
lovel=0
offset=8057
sample=Basstrombone_staccato_PP_F#3_RR1.opus
tune=-26
</region>

<region>
end=57600
hivel=42
key=F#2
lovel=0
offset=5084
sample=Basstrombone_staccato_PP_F#2_RR1.opus
tune=-7
</region>

<region>
end=57600
hivel=42
key=F#1
lovel=0
offset=8434
sample=Basstrombone_staccato_PP_F#1_RR1.opus
tune=-22
</region>

<region>
end=57600
hivel=42
key=E3
lovel=0
offset=9661
sample=Basstrombone_staccato_PP_E3_RR1.opus
tune=-8
</region>

<region>
end=57600
hivel=42
key=E2
lovel=0
offset=10154
sample=Basstrombone_staccato_PP_E2_RR1.opus
tune=-3
</region>

<region>
end=57600
hikey=E1
hivel=42
lokey=A#0
lovel=0
offset=8314
pitch_keycenter=E1
sample=Basstrombone_staccato_PP_E1_RR1.opus
tune=+9
</region>

<region>
end=57600
hivel=42
key=D3
lovel=0
offset=13095
sample=Basstrombone_staccato_PP_D3_RR1.opus
tune=-18
</region>

<region>
end=57600
hivel=42
key=D2
lovel=0
offset=8050
sample=Basstrombone_staccato_PP_D2_RR1.opus
tune=-4
</region>

<region>
end=57600
hivel=42
key=D#3
lovel=0
offset=9380
sample=Basstrombone_staccato_PP_D#3_RR1.opus
tune=-31
</region>

<region>
end=57600
hivel=42
key=D#2
lovel=0
offset=11264
sample=Basstrombone_staccato_PP_D#2_RR1.opus
tune=+33
</region>

<region>
end=57600
hikey=D#5
hivel=42
lokey=C4
lovel=0
offset=12117
sample=Basstrombone_staccato_PP_C4_RR1.opus
tune=-24
</region>

<region>
end=57600
hivel=42
key=C3
lovel=0
offset=10206
sample=Basstrombone_staccato_PP_C3_RR1.opus
tune=-8
</region>

<region>
end=57600
hivel=42
key=C2
lovel=0
offset=9792
sample=Basstrombone_staccato_PP_C2_RR1.opus
tune=-13
</region>

<region>
end=57600
hivel=42
key=C#3
lovel=0
offset=7326
sample=Basstrombone_staccato_PP_C#3_RR1.opus
tune=-15
</region>

<region>
end=57600
hivel=42
key=C#2
lovel=0
offset=12554
sample=Basstrombone_staccato_PP_C#2_RR1.opus
tune=-18
</region>

<region>
end=57600
hivel=42
key=B3
lovel=0
offset=11493
sample=Basstrombone_staccato_PP_B3_RR1.opus
tune=-16
</region>

<region>
end=57600
hivel=42
key=B2
lovel=0
offset=9119
sample=Basstrombone_staccato_PP_B2_RR1.opus
tune=-12
</region>

<region>
end=57600
hivel=42
key=B1
lovel=0
offset=8989
sample=Basstrombone_staccato_PP_B1_RR1.opus
tune=-23
</region>

<region>
end=57600
hivel=42
key=A3
lovel=0
offset=10942
sample=Basstrombone_staccato_PP_A3_RR1.opus
tune=-6
</region>

<region>
end=57600
hivel=42
key=A2
lovel=0
offset=7470
sample=Basstrombone_staccato_PP_A2_RR1.opus
tune=-14
</region>

<region>
end=57600
hivel=42
key=A1
lovel=0
offset=12469
sample=Basstrombone_staccato_PP_A1_RR1.opus
tune=-10
</region>

<region>
end=57600
hivel=42
key=A#3
lovel=0
offset=10693
sample=Basstrombone_staccato_PP_A#3_RR1.opus
tune=-11
</region>

<region>
end=57600
hivel=42
key=A#2
lovel=0
offset=7250
sample=Basstrombone_staccato_PP_A#2_RR1.opus
tune=-10
</region>

<region>
end=57600
hivel=42
key=A#1
lovel=0
offset=14303
sample=Basstrombone_staccato_PP_A#1_RR1.opus
tune=-4
</region>

<region>
end=57600
hivel=84
key=G3
lovel=43
offset=7759
sample=Basstrombone_staccato_MF_G3_RR1.opus
tune=-11
</region>

<region>
end=57600
hivel=84
key=G2
lovel=43
offset=7183
sample=Basstrombone_staccato_MF_G2_RR1.opus
tune=-6
</region>

<region>
end=57600
hivel=84
key=G1
lovel=43
offset=5932
sample=Basstrombone_staccato_MF_G1_RR1.opus
tune=-15
</region>

<region>
end=57600
hivel=84
key=G#3
lovel=43
offset=7642
sample=Basstrombone_staccato_MF_G#3_RR1.opus
tune=-11
</region>

<region>
end=57600
hivel=84
key=G#2
lovel=43
offset=8783
sample=Basstrombone_staccato_MF_G#2_RR1.opus
tune=-15
</region>

<region>
end=57600
hivel=84
key=G#1
lovel=43
offset=2781
sample=Basstrombone_staccato_MF_G#1_RR1.opus
tune=-12
</region>

<region>
end=57600
hivel=84
key=F3
lovel=43
offset=6343
sample=Basstrombone_staccato_MF_F3_RR1.opus
tune=-15
</region>

<region>
end=57600
hivel=84
key=F2
lovel=43
offset=8734
sample=Basstrombone_staccato_MF_F2_RR1.opus
tune=+1
</region>

<region>
end=57600
hivel=84
key=F1
lovel=43
offset=4776
sample=Basstrombone_staccato_MF_F1_RR1.opus
tune=+7
</region>

<region>
end=57600
hivel=84
key=F#3
lovel=43
offset=6657
sample=Basstrombone_staccato_MF_F#3_RR1.opus
tune=-6
</region>

<region>
end=57600
hivel=84
key=F#2
lovel=43
offset=7669
sample=Basstrombone_staccato_MF_F#2_RR1.opus
tune=-4
</region>

<region>
end=57600
hivel=84
key=F#1
lovel=43
offset=4802
sample=Basstrombone_staccato_MF_F#1_RR1.opus
tune=-8
</region>

<region>
end=57600
hivel=84
key=E3
lovel=43
offset=9018
sample=Basstrombone_staccato_MF_E3_RR1.opus
tune=-9
</region>

<region>
end=57600
hivel=84
key=E2
lovel=43
offset=6468
sample=Basstrombone_staccato_MF_E2_RR1.opus
tune=+1
</region>

<region>
end=57600
hikey=E1
hivel=84
lokey=A#0
lovel=43
offset=12699
pitch_keycenter=E1
sample=Basstrombone_staccato_MF_E1_RR1.opus
tune=-15
</region>

<region>
end=57600
hivel=84
key=D3
lovel=43
offset=3813
sample=Basstrombone_staccato_MF_D3_RR1.opus
tune=-12
</region>

<region>
end=57600
hivel=84
key=D2
lovel=43
offset=6711
sample=Basstrombone_staccato_MF_D2_RR1.opus
tune=-21
</region>

<region>
end=57600
hivel=84
key=D#3
lovel=43
offset=7305
sample=Basstrombone_staccato_MF_D#3_RR1.opus
tune=-11
</region>

<region>
end=57600
hivel=84
key=D#2
lovel=43
offset=7227
sample=Basstrombone_staccato_MF_D#2_RR1.opus
tune=-5
</region>

<region>
end=57600
hikey=D#5
hivel=84
lokey=C4
lovel=43
offset=7534
sample=Basstrombone_staccato_MF_C4_RR1.opus
tune=+9
</region>

<region>
end=57600
hivel=84
key=C3
lovel=43
offset=8209
sample=Basstrombone_staccato_MF_C3_RR1.opus
tune=-2
</region>

<region>
end=57600
hivel=84
key=C2
lovel=43
offset=7993
sample=Basstrombone_staccato_MF_C2_RR1.opus
tune=-7
</region>

<region>
end=57600
hivel=84
key=C#3
lovel=43
offset=9978
sample=Basstrombone_staccato_MF_C#3_RR1.opus
tune=-9
</region>

<region>
end=57600
hivel=84
key=C#2
lovel=43
offset=6213
sample=Basstrombone_staccato_MF_C#2_RR1.opus
tune=-10
</region>

<region>
end=57600
hivel=84
key=B3
lovel=43
offset=9179
sample=Basstrombone_staccato_MF_B3_RR1.opus
tune=-18
</region>

<region>
end=57600
hivel=84
key=B2
lovel=43
offset=7265
sample=Basstrombone_staccato_MF_B2_RR1.opus
tune=-15
</region>

<region>
end=57600
hivel=84
key=B1
lovel=43
offset=7871
sample=Basstrombone_staccato_MF_B1_RR1.opus
tune=-40
</region>

<region>
end=57600
hivel=84
key=A3
lovel=43
offset=8506
sample=Basstrombone_staccato_MF_A3_RR1.opus
tune=-8
</region>

<region>
end=57600
hivel=84
key=A2
lovel=43
offset=6312
sample=Basstrombone_staccato_MF_A2_RR1.opus
tune=-14
</region>

<region>
end=57600
hivel=84
key=A1
lovel=43
offset=11021
sample=Basstrombone_staccato_MF_A1_RR1.opus
tune=-19
</region>

<region>
end=57600
hivel=84
key=A#3
lovel=43
offset=7495
sample=Basstrombone_staccato_MF_A#3_RR1.opus
tune=-18
</region>

<region>
end=57600
hivel=84
key=A#2
lovel=43
offset=6748
sample=Basstrombone_staccato_MF_A#2_RR1.opus
tune=-3
</region>

<region>
end=57600
hivel=84
key=A#1
lovel=43
offset=10381
sample=Basstrombone_staccato_MF_A#1_RR1.opus
tune=-9
</region>

<region>
end=57600
hivel=127
key=G3
lovel=85
offset=1557
sample=Basstrombone_staccato_FF_G3_RR1.opus
tune=-9
</region>

<region>
end=57600
hivel=127
key=G2
lovel=85
offset=2056
sample=Basstrombone_staccato_FF_G2_RR1.opus
tune=-11
</region>

<region>
end=57600
hivel=127
key=G1
lovel=85
offset=5977
sample=Basstrombone_staccato_FF_G1_RR1.opus
tune=-19
</region>

<region>
end=57600
hivel=127
key=G#3
lovel=85
offset=1241
sample=Basstrombone_staccato_FF_G#3_RR1.opus
tune=-5
</region>

<region>
end=57600
hivel=127
key=G#2
lovel=85
offset=2241
sample=Basstrombone_staccato_FF_G#2_RR1.opus
tune=-3
</region>

<region>
end=57600
hivel=127
key=G#1
lovel=85
offset=2186
sample=Basstrombone_staccato_FF_G#1_RR1.opus
tune=-11
</region>

<region>
end=57600
hivel=127
key=F3
lovel=85
offset=6697
sample=Basstrombone_staccato_FF_F3_RR1.opus
tune=-18
</region>

<region>
end=57600
hivel=127
key=F2
lovel=85
offset=2736
sample=Basstrombone_staccato_FF_F2_RR1.opus
tune=-4
</region>

<region>
end=57600
hivel=127
key=F1
lovel=85
offset=4803
sample=Basstrombone_staccato_FF_F1_RR1.opus
tune=+28
</region>

<region>
end=57600
hivel=127
key=F#3
lovel=85
offset=2520
sample=Basstrombone_staccato_FF_F#3_RR1.opus
tune=-6
</region>

<region>
end=57600
hivel=127
key=F#2
lovel=85
offset=4120
sample=Basstrombone_staccato_FF_F#2_RR1.opus
</region>

<region>
end=57600
hivel=127
key=F#1
lovel=85
offset=3264
sample=Basstrombone_staccato_FF_F#1_RR1.opus
tune=-18
</region>

<region>
end=57600
hivel=127
key=E3
lovel=85
offset=2462
sample=Basstrombone_staccato_FF_E3_RR1.opus
tune=-10
</region>

<region>
end=57600
hivel=127
key=E2
lovel=85
offset=3941
sample=Basstrombone_staccato_FF_E2_RR1.opus
tune=-18
</region>

<region>
end=57600
hikey=E1
hivel=127
lokey=A#0
lovel=85
offset=7872
pitch_keycenter=E1
sample=Basstrombone_staccato_FF_E1_RR1.opus
tune=-15
</region>

<region>
end=57600
hivel=127
key=D3
lovel=85
offset=3314
sample=Basstrombone_staccato_FF_D3_RR1.opus
</region>

<region>
end=57600
hivel=127
key=D2
lovel=85
offset=5206
sample=Basstrombone_staccato_FF_D2_RR1.opus
tune=-16
</region>

<region>
end=57600
hivel=127
key=D#3
lovel=85
offset=4776
sample=Basstrombone_staccato_FF_D#3_RR1.opus
tune=-13
</region>

<region>
end=57600
hivel=127
key=D#2
lovel=85
offset=3982
sample=Basstrombone_staccato_FF_D#2_RR1.opus
tune=-7
</region>

<region>
end=57600
hikey=D#5
hivel=127
lokey=C4
lovel=85
offset=1715
sample=Basstrombone_staccato_FF_C4_RR1.opus
tune=-5
</region>

<region>
end=57600
hivel=127
key=C3
lovel=85
offset=1739
sample=Basstrombone_staccato_FF_C3_RR1.opus
tune=-4
</region>

<region>
end=57600
hivel=127
key=C2
lovel=85
offset=5021
sample=Basstrombone_staccato_FF_C2_RR1.opus
tune=-16
</region>

<region>
end=57600
hivel=127
key=C#3
lovel=85
offset=4210
sample=Basstrombone_staccato_FF_C#3_RR1.opus
tune=-7
</region>

<region>
end=57600
hivel=127
key=C#2
lovel=85
offset=2478
sample=Basstrombone_staccato_FF_C#2_RR1.opus
tune=-19
</region>

<region>
end=57600
hivel=127
key=B3
lovel=85
offset=1740
sample=Basstrombone_staccato_FF_B3_RR1.opus
tune=-12
</region>

<region>
end=57600
hivel=127
key=B2
lovel=85
offset=1711
sample=Basstrombone_staccato_FF_B2_RR1.opus
tune=-15
</region>

<region>
end=57600
hivel=127
key=B1
lovel=85
offset=5340
sample=Basstrombone_staccato_FF_B1_RR1.opus
tune=-16
</region>

<region>
end=57600
hivel=127
key=A3
lovel=85
offset=1141
sample=Basstrombone_staccato_FF_A3_RR1.opus
tune=-16
</region>

<region>
end=57600
hivel=127
key=A2
lovel=85
offset=5668
sample=Basstrombone_staccato_FF_A2_RR1.opus
tune=+1
</region>

<region>
end=57600
hivel=127
key=A1
lovel=85
offset=2146
sample=Basstrombone_staccato_FF_A1_RR1.opus
tune=-11
</region>

<region>
end=57600
hivel=127
key=A#3
lovel=85
offset=6459
sample=Basstrombone_staccato_FF_A#3_RR1.opus
tune=-12
</region>

<region>
end=57600
hivel=127
key=A#2
lovel=85
offset=1104
sample=Basstrombone_staccato_FF_A#2_RR1.opus
tune=-10
</region>

<region>
end=57600
hivel=127
key=A#1
lovel=85
offset=2678
sample=Basstrombone_staccato_FF_A#1_RR1.opus
tune=-8
</region>
</group>

<group>
group_label=RR2
seq_length=4
seq_position=2

<region>
end=57600
hivel=42
key=G3
lovel=0
offset=9633
sample=Basstrombone_staccato_PP_G3_RR2.opus
tune=-16
</region>

<region>
end=57600
hivel=42
key=G2
lovel=0
offset=10216
sample=Basstrombone_staccato_PP_G2_RR2.opus
tune=-17
</region>

<region>
end=57600
hivel=42
key=G1
lovel=0
offset=15583
sample=Basstrombone_staccato_PP_G1_RR2.opus
tune=-23
</region>

<region>
end=57600
hivel=42
key=G#3
lovel=0
offset=11920
sample=Basstrombone_staccato_PP_G#3_RR2.opus
tune=-11
</region>

<region>
end=57600
hivel=42
key=G#2
lovel=0
offset=10312
sample=Basstrombone_staccato_PP_G#2_RR2.opus
tune=-17
</region>

<region>
end=57600
hivel=42
key=G#1
lovel=0
offset=11693
sample=Basstrombone_staccato_PP_G#1_RR2.opus
tune=-6
</region>

<region>
end=57600
hivel=42
key=F3
lovel=0
offset=9431
sample=Basstrombone_staccato_PP_F3_RR2.opus
tune=-20
</region>

<region>
end=57600
hivel=42
key=F2
lovel=0
offset=9592
sample=Basstrombone_staccato_PP_F2_RR2.opus
tune=+4
</region>

<region>
end=57600
hivel=42
key=F1
lovel=0
offset=11139
sample=Basstrombone_staccato_PP_F1_RR2.opus
tune=+26
</region>

<region>
end=57600
hivel=42
key=F#3
lovel=0
offset=9598
sample=Basstrombone_staccato_PP_F#3_RR2.opus
tune=-25
</region>

<region>
end=57600
hivel=42
key=F#2
lovel=0
offset=6122
sample=Basstrombone_staccato_PP_F#2_RR2.opus
tune=-7
</region>

<region>
end=57600
hivel=42
key=F#1
lovel=0
offset=8117
sample=Basstrombone_staccato_PP_F#1_RR2.opus
tune=-18
</region>

<region>
end=57600
hivel=42
key=E3
lovel=0
offset=10002
sample=Basstrombone_staccato_PP_E3_RR2.opus
tune=-8
</region>

<region>
end=57600
hivel=42
key=E2
lovel=0
offset=8594
sample=Basstrombone_staccato_PP_E2_RR2.opus
tune=-3
</region>

<region>
end=57600
hikey=E1
hivel=42
lokey=A#0
lovel=0
offset=11036
pitch_keycenter=E1
sample=Basstrombone_staccato_PP_E1_RR2.opus
tune=-7
</region>

<region>
end=57600
hivel=42
key=D3
lovel=0
offset=11817
sample=Basstrombone_staccato_PP_D3_RR2.opus
tune=-16
</region>

<region>
end=57600
hivel=42
key=D2
lovel=0
offset=9840
sample=Basstrombone_staccato_PP_D2_RR2.opus
tune=-4
</region>

<region>
end=57600
hivel=42
key=D#3
lovel=0
offset=8301
sample=Basstrombone_staccato_PP_D#3_RR2.opus
tune=-30
</region>

<region>
end=57600
hivel=42
key=D#2
lovel=0
offset=13828
sample=Basstrombone_staccato_PP_D#2_RR2.opus
tune=+30
</region>

<region>
end=57600
hikey=D#5
hivel=42
lokey=C4
lovel=0
offset=10639
sample=Basstrombone_staccato_PP_C4_RR2.opus
tune=-25
</region>

<region>
end=57600
hivel=42
key=C3
lovel=0
offset=10434
sample=Basstrombone_staccato_PP_C3_RR2.opus
tune=-11
</region>

<region>
end=57600
hivel=42
key=C2
lovel=0
offset=10580
sample=Basstrombone_staccato_PP_C2_RR2.opus
tune=-10
</region>

<region>
end=57600
hivel=42
key=C#3
lovel=0
offset=9424
sample=Basstrombone_staccato_PP_C#3_RR2.opus
tune=-17
</region>

<region>
end=57600
hivel=42
key=C#2
lovel=0
offset=9092
sample=Basstrombone_staccato_PP_C#2_RR2.opus
tune=-18
</region>

<region>
end=57600
hivel=42
key=B3
lovel=0
offset=11395
sample=Basstrombone_staccato_PP_B3_RR2.opus
tune=-21
</region>

<region>
end=57600
hivel=42
key=B2
lovel=0
offset=9605
sample=Basstrombone_staccato_PP_B2_RR2.opus
tune=-12
</region>

<region>
end=57600
hivel=42
key=B1
lovel=0
offset=8892
sample=Basstrombone_staccato_PP_B1_RR2.opus
tune=-19
</region>

<region>
end=57600
hivel=42
key=A3
lovel=0
offset=11630
sample=Basstrombone_staccato_PP_A3_RR2.opus
tune=-11
</region>

<region>
end=57600
hivel=42
key=A2
lovel=0
offset=9204
sample=Basstrombone_staccato_PP_A2_RR2.opus
tune=-16
</region>

<region>
end=57600
hivel=42
key=A1
lovel=0
offset=9891
sample=Basstrombone_staccato_PP_A1_RR2.opus
tune=-6
</region>

<region>
end=57600
hivel=42
key=A#3
lovel=0
offset=11370
sample=Basstrombone_staccato_PP_A#3_RR2.opus
tune=-12
</region>

<region>
end=57600
hivel=42
key=A#2
lovel=0
offset=11037
sample=Basstrombone_staccato_PP_A#2_RR2.opus
tune=-11
</region>

<region>
end=57600
hivel=42
key=A#1
lovel=0
offset=12175
sample=Basstrombone_staccato_PP_A#1_RR2.opus
tune=-5
</region>

<region>
end=57600
hivel=84
key=G3
lovel=43
offset=8360
sample=Basstrombone_staccato_MF_G3_RR2.opus
tune=-17
</region>

<region>
end=57600
hivel=84
key=G2
lovel=43
offset=7362
sample=Basstrombone_staccato_MF_G2_RR2.opus
tune=-10
</region>

<region>
end=57600
hivel=84
key=G1
lovel=43
offset=4669
sample=Basstrombone_staccato_MF_G1_RR2.opus
tune=-18
</region>

<region>
end=57600
hivel=84
key=G#3
lovel=43
offset=7984
sample=Basstrombone_staccato_MF_G#3_RR2.opus
tune=-17
</region>

<region>
end=57600
hivel=84
key=G#2
lovel=43
offset=9495
sample=Basstrombone_staccato_MF_G#2_RR2.opus
tune=-13
</region>

<region>
end=57600
hivel=84
key=G#1
lovel=43
offset=7842
sample=Basstrombone_staccato_MF_G#1_RR2.opus
tune=-20
</region>

<region>
end=57600
hivel=84
key=F3
lovel=43
offset=8155
sample=Basstrombone_staccato_MF_F3_RR2.opus
tune=-18
</region>

<region>
end=57600
hivel=84
key=F2
lovel=43
offset=7192
sample=Basstrombone_staccato_MF_F2_RR2.opus
tune=+4
</region>

<region>
end=57600
hivel=84
key=F1
lovel=43
offset=8118
sample=Basstrombone_staccato_MF_F1_RR2.opus
tune=+1
</region>

<region>
end=57600
hivel=84
key=F#3
lovel=43
offset=5773
sample=Basstrombone_staccato_MF_F#3_RR2.opus
tune=-14
</region>

<region>
end=57600
hivel=84
key=F#2
lovel=43
offset=8057
sample=Basstrombone_staccato_MF_F#2_RR2.opus
tune=-9
</region>

<region>
end=57600
hivel=84
key=F#1
lovel=43
offset=6192
sample=Basstrombone_staccato_MF_F#1_RR2.opus
tune=-14
</region>

<region>
end=57600
hivel=84
key=E3
lovel=43
offset=10478
sample=Basstrombone_staccato_MF_E3_RR2.opus
tune=-8
</region>

<region>
end=57600
hivel=84
key=E2
lovel=43
offset=7580
sample=Basstrombone_staccato_MF_E2_RR2.opus
tune=-7
</region>

<region>
end=57600
hikey=E1
hivel=84
lokey=A#0
lovel=43
offset=8205
pitch_keycenter=E1
sample=Basstrombone_staccato_MF_E1_RR2.opus
tune=-16
</region>

<region>
end=57600
hivel=84
key=D3
lovel=43
offset=4173
sample=Basstrombone_staccato_MF_D3_RR2.opus
tune=-12
</region>

<region>
end=57600
hivel=84
key=D2
lovel=43
offset=7857
sample=Basstrombone_staccato_MF_D2_RR2.opus
tune=-20
</region>

<region>
end=57600
hivel=84
key=D#3
lovel=43
offset=7186
sample=Basstrombone_staccato_MF_D#3_RR2.opus
tune=-18
</region>

<region>
end=57600
hivel=84
key=D#2
lovel=43
offset=4675
sample=Basstrombone_staccato_MF_D#2_RR2.opus
tune=-6
</region>

<region>
end=57600
hikey=D#5
hivel=84
lokey=C4
lovel=43
offset=8512
sample=Basstrombone_staccato_MF_C4_RR2.opus
tune=+6
</region>

<region>
end=57600
hivel=84
key=C3
lovel=43
offset=6896
sample=Basstrombone_staccato_MF_C3_RR2.opus
tune=-6
</region>

<region>
end=57600
hivel=84
key=C2
lovel=43
offset=9493
sample=Basstrombone_staccato_MF_C2_RR2.opus
tune=-10
</region>

<region>
end=57600
hivel=84
key=C#3
lovel=43
offset=7796
sample=Basstrombone_staccato_MF_C#3_RR2.opus
tune=-12
</region>

<region>
end=57600
hivel=84
key=C#2
lovel=43
offset=6272
sample=Basstrombone_staccato_MF_C#2_RR2.opus
tune=-16
</region>

<region>
end=57600
hivel=84
key=B3
lovel=43
offset=9915
sample=Basstrombone_staccato_MF_B3_RR2.opus
tune=-16
</region>

<region>
end=57600
hivel=84
key=B2
lovel=43
offset=7806
sample=Basstrombone_staccato_MF_B2_RR2.opus
tune=-16
</region>

<region>
end=57600
hivel=84
key=B1
lovel=43
offset=7618
sample=Basstrombone_staccato_MF_B1_RR2.opus
tune=-44
</region>

<region>
end=57600
hivel=84
key=A3
lovel=43
offset=9296
sample=Basstrombone_staccato_MF_A3_RR2.opus
tune=-14
</region>

<region>
end=57600
hivel=84
key=A2
lovel=43
offset=7482
sample=Basstrombone_staccato_MF_A2_RR2.opus
tune=-18
</region>

<region>
end=57600
hivel=84
key=A1
lovel=43
offset=9305
sample=Basstrombone_staccato_MF_A1_RR2.opus
tune=-33
</region>

<region>
end=57600
hivel=84
key=A#3
lovel=43
offset=9171
sample=Basstrombone_staccato_MF_A#3_RR2.opus
tune=-19
</region>

<region>
end=57600
hivel=84
key=A#2
lovel=43
offset=8552
sample=Basstrombone_staccato_MF_A#2_RR2.opus
tune=-5
</region>

<region>
end=57600
hivel=84
key=A#1
lovel=43
offset=8141
sample=Basstrombone_staccato_MF_A#1_RR2.opus
tune=-16
</region>

<region>
end=57600
hivel=127
key=G3
lovel=85
offset=4369
sample=Basstrombone_staccato_FF_G3_RR2.opus
tune=-9
</region>

<region>
end=57600
hivel=127
key=G2
lovel=85
offset=6046
sample=Basstrombone_staccato_FF_G2_RR2.opus
tune=-11
</region>

<region>
end=57600
hivel=127
key=G1
lovel=85
offset=6482
sample=Basstrombone_staccato_FF_G1_RR2.opus
tune=-15
</region>

<region>
end=57600
hivel=127
key=G#3
lovel=85
offset=4165
sample=Basstrombone_staccato_FF_G#3_RR2.opus
tune=-15
</region>

<region>
end=57600
hivel=127
key=G#2
lovel=85
offset=6030
sample=Basstrombone_staccato_FF_G#2_RR2.opus
tune=-7
</region>

<region>
end=57600
hivel=127
key=G#1
lovel=85
offset=2686
sample=Basstrombone_staccato_FF_G#1_RR2.opus
tune=-10
</region>

<region>
end=57600
hivel=127
key=F3
lovel=85
offset=6580
sample=Basstrombone_staccato_FF_F3_RR2.opus
tune=-20
</region>

<region>
end=57600
hivel=127
key=F2
lovel=85
offset=5216
sample=Basstrombone_staccato_FF_F2_RR2.opus
tune=-2
</region>

<region>
end=57600
hivel=127
key=F1
lovel=85
offset=2551
sample=Basstrombone_staccato_FF_F1_RR2.opus
tune=-11
</region>

<region>
end=57600
hivel=127
key=F#3
lovel=85
offset=3665
sample=Basstrombone_staccato_FF_F#3_RR2.opus
tune=-11
</region>

<region>
end=57600
hivel=127
key=F#2
lovel=85
offset=5029
sample=Basstrombone_staccato_FF_F#2_RR2.opus
tune=-6
</region>

<region>
end=57600
hivel=127
key=F#1
lovel=85
offset=4406
sample=Basstrombone_staccato_FF_F#1_RR2.opus
tune=-15
</region>

<region>
end=57600
hivel=127
key=E3
lovel=85
offset=4553
sample=Basstrombone_staccato_FF_E3_RR2.opus
tune=-18
</region>

<region>
end=57600
hivel=127
key=E2
lovel=85
offset=3527
sample=Basstrombone_staccato_FF_E2_RR2.opus
tune=-21
</region>

<region>
end=57600
hikey=E1
hivel=127
lokey=A#0
lovel=85
offset=5147
pitch_keycenter=E1
sample=Basstrombone_staccato_FF_E1_RR2.opus
tune=-32
</region>

<region>
end=57600
hivel=127
key=D3
lovel=85
offset=3727
sample=Basstrombone_staccato_FF_D3_RR2.opus
</region>

<region>
end=57600
hivel=127
key=D2
lovel=85
offset=6351
sample=Basstrombone_staccato_FF_D2_RR2.opus
tune=-20
</region>

<region>
end=57600
hivel=127
key=D#3
lovel=85
offset=4237
sample=Basstrombone_staccato_FF_D#3_RR2.opus
tune=-22
</region>

<region>
end=57600
hivel=127
key=D#2
lovel=85
offset=2643
sample=Basstrombone_staccato_FF_D#2_RR2.opus
tune=-3
</region>

<region>
end=57600
hikey=D#5
hivel=127
lokey=C4
lovel=85
offset=6105
sample=Basstrombone_staccato_FF_C4_RR2.opus
tune=-6
</region>

<region>
end=57600
hivel=127
key=C3
lovel=85
offset=3851
sample=Basstrombone_staccato_FF_C3_RR2.opus
tune=-4
</region>

<region>
end=57600
hivel=127
key=C2
lovel=85
offset=6183
sample=Basstrombone_staccato_FF_C2_RR2.opus
tune=-27
</region>

<region>
end=57600
hivel=127
key=C#3
lovel=85
offset=5531
sample=Basstrombone_staccato_FF_C#3_RR2.opus
tune=-12
</region>

<region>
end=57600
hivel=127
key=C#2
lovel=85
offset=5121
sample=Basstrombone_staccato_FF_C#2_RR2.opus
tune=-20
</region>

<region>
end=57600
hivel=127
key=B3
lovel=85
offset=4961
sample=Basstrombone_staccato_FF_B3_RR2.opus
tune=-16
</region>

<region>
end=57600
hivel=127
key=B2
lovel=85
offset=2709
sample=Basstrombone_staccato_FF_B2_RR2.opus
tune=-16
</region>

<region>
end=57600
hivel=127
key=B1
lovel=85
offset=6098
sample=Basstrombone_staccato_FF_B1_RR2.opus
tune=-20
</region>

<region>
end=57600
hivel=127
key=A3
lovel=85
offset=4913
sample=Basstrombone_staccato_FF_A3_RR2.opus
tune=-21
</region>

<region>
end=57600
hivel=127
key=A2
lovel=85
offset=1585
sample=Basstrombone_staccato_FF_A2_RR2.opus
tune=-14
</region>

<region>
end=57600
hivel=127
key=A1
lovel=85
offset=5172
sample=Basstrombone_staccato_FF_A1_RR2.opus
tune=-6
</region>

<region>
end=57600
hivel=127
key=A#3
lovel=85
offset=6809
sample=Basstrombone_staccato_FF_A#3_RR2.opus
tune=-15
</region>

<region>
end=57600
hivel=127
key=A#2
lovel=85
offset=3383
sample=Basstrombone_staccato_FF_A#2_RR2.opus
tune=-5
</region>

<region>
end=57600
hivel=127
key=A#1
lovel=85
offset=6152
sample=Basstrombone_staccato_FF_A#1_RR2.opus
tune=-11
</region>
</group>

<group>
group_label=RR3
seq_length=4
seq_position=3

<region>
end=57600
hivel=42
key=G3
lovel=0
offset=10557
sample=Basstrombone_staccato_PP_G3_RR3.opus
tune=-17
</region>

<region>
end=57600
hivel=42
key=G2
lovel=0
offset=8250
sample=Basstrombone_staccato_PP_G2_RR3.opus
tune=-10
</region>

<region>
end=57600
hivel=42
key=G1
lovel=0
offset=11160
sample=Basstrombone_staccato_PP_G1_RR3.opus
tune=-34
</region>

<region>
end=57600
hivel=42
key=G#3
lovel=0
offset=11831
sample=Basstrombone_staccato_PP_G#3_RR3.opus
tune=-9
</region>

<region>
end=57600
hivel=42
key=G#2
lovel=0
offset=11608
sample=Basstrombone_staccato_PP_G#2_RR3.opus
tune=-6
</region>

<region>
end=57600
hivel=42
key=G#1
lovel=0
offset=10273
sample=Basstrombone_staccato_PP_G#1_RR3.opus
tune=-6
</region>

<region>
end=57600
hivel=42
key=F3
lovel=0
offset=10890
sample=Basstrombone_staccato_PP_F3_RR3.opus
tune=-22
</region>

<region>
end=57600
hivel=42
key=F2
lovel=0
offset=12368
sample=Basstrombone_staccato_PP_F2_RR3.opus
tune=-1
</region>

<region>
end=57600
hivel=42
key=F1
lovel=0
offset=8720
sample=Basstrombone_staccato_PP_F1_RR3.opus
tune=+33
</region>

<region>
end=57600
hivel=42
key=F#3
lovel=0
offset=11598
sample=Basstrombone_staccato_PP_F#3_RR3.opus
tune=-24
</region>

<region>
end=57600
hivel=42
key=F#2
lovel=0
offset=8724
sample=Basstrombone_staccato_PP_F#2_RR3.opus
tune=-10
</region>

<region>
end=57600
hivel=42
key=F#1
lovel=0
offset=7583
sample=Basstrombone_staccato_PP_F#1_RR3.opus
tune=-14
</region>

<region>
end=57600
hivel=42
key=E3
lovel=0
offset=9817
sample=Basstrombone_staccato_PP_E3_RR3.opus
tune=-11
</region>

<region>
end=57600
hivel=42
key=E2
lovel=0
offset=10226
sample=Basstrombone_staccato_PP_E2_RR3.opus
tune=-1
</region>

<region>
end=57600
hikey=E1
hivel=42
lokey=A#0
lovel=0
offset=11303
pitch_keycenter=E1
sample=Basstrombone_staccato_PP_E1_RR3.opus
tune=+6
</region>

<region>
end=57600
hivel=42
key=D3
lovel=0
offset=10667
sample=Basstrombone_staccato_PP_D3_RR3.opus
tune=-14
</region>

<region>
end=57600
hivel=42
key=D2
lovel=0
offset=10786
sample=Basstrombone_staccato_PP_D2_RR3.opus
tune=-6
</region>

<region>
end=57600
hivel=42
key=D#3
lovel=0
offset=8523
sample=Basstrombone_staccato_PP_D#3_RR3.opus
tune=-21
</region>

<region>
end=57600
hivel=42
key=D#2
lovel=0
offset=16243
sample=Basstrombone_staccato_PP_D#2_RR3.opus
tune=+21
</region>

<region>
end=57600
hikey=D#5
hivel=42
lokey=C4
lovel=0
offset=9356
sample=Basstrombone_staccato_PP_C4_RR3.opus
tune=-28
</region>

<region>
end=57600
hivel=42
key=C3
lovel=0
offset=9876
sample=Basstrombone_staccato_PP_C3_RR3.opus
tune=-13
</region>

<region>
end=57600
hivel=42
key=C2
lovel=0
offset=10596
sample=Basstrombone_staccato_PP_C2_RR3.opus
tune=-16
</region>

<region>
end=57600
hivel=42
key=C#3
lovel=0
offset=9658
sample=Basstrombone_staccato_PP_C#3_RR3.opus
tune=-16
</region>

<region>
end=57600
hivel=42
key=C#2
lovel=0
offset=10434
sample=Basstrombone_staccato_PP_C#2_RR3.opus
tune=-7
</region>

<region>
end=57600
hivel=42
key=B3
lovel=0
offset=10608
sample=Basstrombone_staccato_PP_B3_RR3.opus
tune=-27
</region>

<region>
end=57600
hivel=42
key=B2
lovel=0
offset=9044
sample=Basstrombone_staccato_PP_B2_RR3.opus
tune=-15
</region>

<region>
end=57600
hivel=42
key=B1
lovel=0
offset=8570
sample=Basstrombone_staccato_PP_B1_RR3.opus
tune=-17
</region>

<region>
end=57600
hivel=42
key=A3
lovel=0
offset=11706
sample=Basstrombone_staccato_PP_A3_RR3.opus
tune=-15
</region>

<region>
end=57600
hivel=42
key=A2
lovel=0
offset=9559
sample=Basstrombone_staccato_PP_A2_RR3.opus
tune=-5
</region>

<region>
end=57600
hivel=42
key=A1
lovel=0
offset=11496
sample=Basstrombone_staccato_PP_A1_RR3.opus
tune=-7
</region>

<region>
end=57600
hivel=42
key=A#3
lovel=0
offset=9455
sample=Basstrombone_staccato_PP_A#3_RR3.opus
tune=-9
</region>

<region>
end=57600
hivel=42
key=A#2
lovel=0
offset=10829
sample=Basstrombone_staccato_PP_A#2_RR3.opus
tune=-3
</region>

<region>
end=57600
hivel=42
key=A#1
lovel=0
offset=9552
sample=Basstrombone_staccato_PP_A#1_RR3.opus
tune=-3
</region>

<region>
end=57600
hivel=84
key=G3
lovel=43
offset=6307
sample=Basstrombone_staccato_MF_G3_RR3.opus
tune=-17
</region>

<region>
end=57600
hivel=84
key=G2
lovel=43
offset=7549
sample=Basstrombone_staccato_MF_G2_RR3.opus
tune=-9
</region>

<region>
end=57600
hivel=84
key=G1
lovel=43
offset=5832
sample=Basstrombone_staccato_MF_G1_RR3.opus
tune=-26
</region>

<region>
end=57600
hivel=84
key=G#3
lovel=43
offset=7126
sample=Basstrombone_staccato_MF_G#3_RR3.opus
tune=-9
</region>

<region>
end=57600
hivel=84
key=G#2
lovel=43
offset=9673
sample=Basstrombone_staccato_MF_G#2_RR3.opus
tune=-15
</region>

<region>
end=57600
hivel=84
key=G#1
lovel=43
offset=4852
sample=Basstrombone_staccato_MF_G#1_RR3.opus
tune=-25
</region>

<region>
end=57600
hivel=84
key=F3
lovel=43
offset=7382
sample=Basstrombone_staccato_MF_F3_RR3.opus
tune=-19
</region>

<region>
end=57600
hivel=84
key=F2
lovel=43
offset=6011
sample=Basstrombone_staccato_MF_F2_RR3.opus
tune=+7
</region>

<region>
end=57600
hivel=84
key=F1
lovel=43
offset=7333
sample=Basstrombone_staccato_MF_F1_RR3.opus
tune=-4
</region>

<region>
end=57600
hivel=84
key=F#3
lovel=43
offset=6219
sample=Basstrombone_staccato_MF_F#3_RR3.opus
tune=-17
</region>

<region>
end=57600
hivel=84
key=F#2
lovel=43
offset=7695
sample=Basstrombone_staccato_MF_F#2_RR3.opus
tune=-9
</region>

<region>
end=57600
hivel=84
key=F#1
lovel=43
offset=5684
sample=Basstrombone_staccato_MF_F#1_RR3.opus
tune=-10
</region>

<region>
end=57600
hivel=84
key=E3
lovel=43
offset=7927
sample=Basstrombone_staccato_MF_E3_RR3.opus
tune=-14
</region>

<region>
end=57600
hivel=84
key=E2
lovel=43
offset=5955
sample=Basstrombone_staccato_MF_E2_RR3.opus
tune=-4
</region>

<region>
end=57600
hikey=E1
hivel=84
lokey=A#0
lovel=43
offset=3914
pitch_keycenter=E1
sample=Basstrombone_staccato_MF_E1_RR3.opus
tune=-14
</region>

<region>
end=57600
hivel=84
key=D3
lovel=43
offset=2560
sample=Basstrombone_staccato_MF_D3_RR3.opus
tune=-14
</region>

<region>
end=57600
hivel=84
key=D2
lovel=43
offset=7651
sample=Basstrombone_staccato_MF_D2_RR3.opus
tune=-15
</region>

<region>
end=57600
hivel=84
key=D#3
lovel=43
offset=6997
sample=Basstrombone_staccato_MF_D#3_RR3.opus
tune=-23
</region>

<region>
end=57600
hivel=84
key=D#2
lovel=43
offset=5544
sample=Basstrombone_staccato_MF_D#2_RR3.opus
tune=-3
</region>

<region>
end=57600
hikey=D#5
hivel=84
lokey=C4
lovel=43
offset=7530
sample=Basstrombone_staccato_MF_C4_RR3.opus
tune=+2
</region>

<region>
end=57600
hivel=84
key=C3
lovel=43
offset=7764
sample=Basstrombone_staccato_MF_C3_RR3.opus
tune=-7
</region>

<region>
end=57600
hivel=84
key=C2
lovel=43
offset=7673
sample=Basstrombone_staccato_MF_C2_RR3.opus
tune=-11
</region>

<region>
end=57600
hivel=84
key=C#3
lovel=43
offset=6509
sample=Basstrombone_staccato_MF_C#3_RR3.opus
tune=-16
</region>

<region>
end=57600
hivel=84
key=C#2
lovel=43
offset=6498
sample=Basstrombone_staccato_MF_C#2_RR3.opus
tune=-14
</region>

<region>
end=57600
hivel=84
key=B3
lovel=43
offset=7785
sample=Basstrombone_staccato_MF_B3_RR3.opus
tune=-13
</region>

<region>
end=57600
hivel=84
key=B2
lovel=43
offset=6855
sample=Basstrombone_staccato_MF_B2_RR3.opus
tune=-17
</region>

<region>
end=57600
hivel=84
key=B1
lovel=43
offset=5698
sample=Basstrombone_staccato_MF_B1_RR3.opus
tune=-43
</region>

<region>
end=57600
hivel=84
key=A3
lovel=43
offset=7343
sample=Basstrombone_staccato_MF_A3_RR3.opus
tune=-17
</region>

<region>
end=57600
hivel=84
key=A2
lovel=43
offset=6702
sample=Basstrombone_staccato_MF_A2_RR3.opus
tune=-17
</region>

<region>
end=57600
hivel=84
key=A1
lovel=43
offset=9557
sample=Basstrombone_staccato_MF_A1_RR3.opus
tune=-33
</region>

<region>
end=57600
hivel=84
key=A#3
lovel=43
offset=6978
sample=Basstrombone_staccato_MF_A#3_RR3.opus
tune=-17
</region>

<region>
end=57600
hivel=84
key=A#2
lovel=43
offset=10307
sample=Basstrombone_staccato_MF_A#2_RR3.opus
tune=-4
</region>

<region>
end=57600
hivel=84
key=A#1
lovel=43
offset=7662
sample=Basstrombone_staccato_MF_A#1_RR3.opus
tune=-17
</region>

<region>
end=57600
hivel=127
key=G3
lovel=85
offset=3113
sample=Basstrombone_staccato_FF_G3_RR3.opus
tune=-11
</region>

<region>
end=57600
hivel=127
key=G2
lovel=85
offset=5169
sample=Basstrombone_staccato_FF_G2_RR3.opus
tune=-18
</region>

<region>
end=57600
hivel=127
key=G1
lovel=85
offset=4152
sample=Basstrombone_staccato_FF_G1_RR3.opus
tune=-25
</region>

<region>
end=57600
hivel=127
key=G#3
lovel=85
offset=1731
sample=Basstrombone_staccato_FF_G#3_RR3.opus
tune=-12
</region>

<region>
end=57600
hivel=127
key=G#2
lovel=85
offset=5334
sample=Basstrombone_staccato_FF_G#2_RR3.opus
tune=-5
</region>

<region>
end=57600
hivel=127
key=G#1
lovel=85
offset=3742
sample=Basstrombone_staccato_FF_G#1_RR3.opus
tune=-11
</region>

<region>
end=57600
hivel=127
key=F3
lovel=85
offset=3180
sample=Basstrombone_staccato_FF_F3_RR3.opus
tune=-16
</region>

<region>
end=57600
hivel=127
key=F2
lovel=85
offset=2153
sample=Basstrombone_staccato_FF_F2_RR3.opus
tune=-6
</region>

<region>
end=57600
hivel=127
key=F1
lovel=85
offset=2336
sample=Basstrombone_staccato_FF_F1_RR3.opus
tune=-10
</region>

<region>
end=57600
hivel=127
key=F#3
lovel=85
offset=1929
sample=Basstrombone_staccato_FF_F#3_RR3.opus
tune=-11
</region>

<region>
end=57600
hivel=127
key=F#2
lovel=85
offset=3955
sample=Basstrombone_staccato_FF_F#2_RR3.opus
tune=-7
</region>

<region>
end=57600
hivel=127
key=F#1
lovel=85
offset=5047
sample=Basstrombone_staccato_FF_F#1_RR3.opus
tune=-31
</region>

<region>
end=57600
hivel=127
key=E3
lovel=85
offset=4167
sample=Basstrombone_staccato_FF_E3_RR3.opus
tune=-17
</region>

<region>
end=57600
hivel=127
key=E2
lovel=85
offset=2112
sample=Basstrombone_staccato_FF_E2_RR3.opus
tune=-29
</region>

<region>
end=57600
hikey=E1
hivel=127
lokey=A#0
lovel=85
offset=4596
pitch_keycenter=E1
sample=Basstrombone_staccato_FF_E1_RR3.opus
tune=-28
</region>

<region>
end=57600
hivel=127
key=D3
lovel=85
offset=2923
sample=Basstrombone_staccato_FF_D3_RR3.opus
tune=-12
</region>

<region>
end=57600
hivel=127
key=D2
lovel=85
offset=4703
sample=Basstrombone_staccato_FF_D2_RR3.opus
tune=-24
</region>

<region>
end=57600
hivel=127
key=D#3
lovel=85
offset=1912
sample=Basstrombone_staccato_FF_D#3_RR3.opus
tune=-20
</region>

<region>
end=57600
hivel=127
key=D#2
lovel=85
offset=2157
sample=Basstrombone_staccato_FF_D#2_RR3.opus
tune=-8
</region>

<region>
end=57600
hikey=D#5
hivel=127
lokey=C4
lovel=85
offset=6330
sample=Basstrombone_staccato_FF_C4_RR3.opus
tune=-9
</region>

<region>
end=57600
hivel=127
key=C3
lovel=85
offset=2043
sample=Basstrombone_staccato_FF_C3_RR3.opus
tune=-4
</region>

<region>
end=57600
hivel=127
key=C2
lovel=85
offset=3527
sample=Basstrombone_staccato_FF_C2_RR3.opus
tune=-23
</region>

<region>
end=57600
hivel=127
key=C#3
lovel=85
offset=4506
sample=Basstrombone_staccato_FF_C#3_RR3.opus
tune=-20
</region>

<region>
end=57600
hivel=127
key=C#2
lovel=85
offset=2311
sample=Basstrombone_staccato_FF_C#2_RR3.opus
tune=-21
</region>

<region>
end=57600
hivel=127
key=B3
lovel=85
offset=5850
sample=Basstrombone_staccato_FF_B3_RR3.opus
tune=-15
</region>

<region>
end=57600
hivel=127
key=B2
lovel=85
offset=2051
sample=Basstrombone_staccato_FF_B2_RR3.opus
tune=-20
</region>

<region>
end=57600
hivel=127
key=B1
lovel=85
offset=4346
sample=Basstrombone_staccato_FF_B1_RR3.opus
tune=-18
</region>

<region>
end=57600
hivel=127
key=A3
lovel=85
offset=4602
sample=Basstrombone_staccato_FF_A3_RR3.opus
tune=-21
</region>

<region>
end=57600
hivel=127
key=A2
lovel=85
offset=688
sample=Basstrombone_staccato_FF_A2_RR3.opus
tune=-19
</region>

<region>
end=57600
hivel=127
key=A1
lovel=85
offset=5012
sample=Basstrombone_staccato_FF_A1_RR3.opus
tune=+1
</region>

<region>
end=57600
hivel=127
key=A#3
lovel=85
offset=4230
sample=Basstrombone_staccato_FF_A#3_RR3.opus
tune=-14
</region>

<region>
end=57600
hivel=127
key=A#2
lovel=85
offset=2105
sample=Basstrombone_staccato_FF_A#2_RR3.opus
tune=-9
</region>

<region>
end=57600
hivel=127
key=A#1
lovel=85
offset=5678
sample=Basstrombone_staccato_FF_A#1_RR3.opus
tune=-10
</region>
</group>

<group>
group_label=RR4
seq_length=4
seq_position=4

<region>
end=57600
hivel=42
key=G3
lovel=0
offset=11385
sample=Basstrombone_staccato_PP_G3_RR4.opus
tune=-13
</region>

<region>
end=57600
hivel=42
key=G2
lovel=0
offset=7465
sample=Basstrombone_staccato_PP_G2_RR4.opus
tune=-16
</region>

<region>
end=57600
hivel=42
key=G1
lovel=0
offset=8067
sample=Basstrombone_staccato_PP_G1_RR4.opus
tune=-30
</region>

<region>
end=57600
hivel=42
key=G#3
lovel=0
offset=9327
sample=Basstrombone_staccato_PP_G#3_RR4.opus
tune=-9
</region>

<region>
end=57600
hivel=42
key=G#2
lovel=0
offset=12526
sample=Basstrombone_staccato_PP_G#2_RR4.opus
tune=-12
</region>

<region>
end=57600
hivel=42
key=G#1
lovel=0
offset=11275
sample=Basstrombone_staccato_PP_G#1_RR4.opus
tune=-4
</region>

<region>
end=57600
hivel=42
key=F3
lovel=0
offset=10135
sample=Basstrombone_staccato_PP_F3_RR4.opus
tune=-22
</region>

<region>
end=57600
hivel=42
key=F2
lovel=0
offset=11249
sample=Basstrombone_staccato_PP_F2_RR4.opus
</region>

<region>
end=57600
hivel=42
key=F1
lovel=0
offset=8134
sample=Basstrombone_staccato_PP_F1_RR4.opus
tune=+16
</region>

<region>
end=57600
hivel=42
key=F#3
lovel=0
offset=9892
sample=Basstrombone_staccato_PP_F#3_RR4.opus
tune=-29
</region>

<region>
end=57600
hivel=42
key=F#2
lovel=0
offset=9443
sample=Basstrombone_staccato_PP_F#2_RR4.opus
tune=-9
</region>

<region>
end=57600
hivel=42
key=F#1
lovel=0
offset=8930
sample=Basstrombone_staccato_PP_F#1_RR4.opus
tune=-20
</region>

<region>
end=57600
hivel=42
key=E3
lovel=0
offset=10092
sample=Basstrombone_staccato_PP_E3_RR4.opus
tune=-19
</region>

<region>
end=57600
hivel=42
key=E2
lovel=0
offset=9412
sample=Basstrombone_staccato_PP_E2_RR4.opus
tune=-3
</region>

<region>
end=57600
hikey=E1
hivel=42
lokey=A#0
lovel=0
offset=11109
pitch_keycenter=E1
sample=Basstrombone_staccato_PP_E1_RR4.opus
tune=+15
</region>

<region>
end=57600
hivel=42
key=D3
lovel=0
offset=11557
sample=Basstrombone_staccato_PP_D3_RR4.opus
tune=-18
</region>

<region>
end=57600
hivel=42
key=D2
lovel=0
offset=10513
sample=Basstrombone_staccato_PP_D2_RR4.opus
tune=-18
</region>

<region>
end=57600
hivel=42
key=D#3
lovel=0
offset=8676
sample=Basstrombone_staccato_PP_D#3_RR4.opus
tune=-30
</region>

<region>
end=57600
hivel=42
key=D#2
lovel=0
offset=13851
sample=Basstrombone_staccato_PP_D#2_RR4.opus
tune=+11
</region>

<region>
end=57600
hikey=D#5
hivel=42
lokey=C4
lovel=0
offset=9002
sample=Basstrombone_staccato_PP_C4_RR4.opus
tune=-26
</region>

<region>
end=57600
hivel=42
key=C3
lovel=0
offset=11258
sample=Basstrombone_staccato_PP_C3_RR4.opus
tune=-5
</region>

<region>
end=57600
hivel=42
key=C2
lovel=0
offset=9442
sample=Basstrombone_staccato_PP_C2_RR4.opus
tune=-17
</region>

<region>
end=57600
hivel=42
key=C#3
lovel=0
offset=10265
sample=Basstrombone_staccato_PP_C#3_RR4.opus
tune=-20
</region>

<region>
end=57600
hivel=42
key=C#2
lovel=0
offset=10811
sample=Basstrombone_staccato_PP_C#2_RR4.opus
tune=-15
</region>

<region>
end=57600
hivel=42
key=B3
lovel=0
offset=10090
sample=Basstrombone_staccato_PP_B3_RR4.opus
tune=-28
</region>

<region>
end=57600
hivel=42
key=B2
lovel=0
offset=8957
sample=Basstrombone_staccato_PP_B2_RR4.opus
tune=-15
</region>

<region>
end=57600
hivel=42
key=B1
lovel=0
offset=7396
sample=Basstrombone_staccato_PP_B1_RR4.opus
tune=-13
</region>

<region>
end=57600
hivel=42
key=A3
lovel=0
offset=10562
sample=Basstrombone_staccato_PP_A3_RR4.opus
tune=-16
</region>

<region>
end=57600
hivel=42
key=A2
lovel=0
offset=11634
sample=Basstrombone_staccato_PP_A2_RR4.opus
tune=-8
</region>

<region>
end=57600
hivel=42
key=A1
lovel=0
offset=11014
sample=Basstrombone_staccato_PP_A1_RR4.opus
tune=-5
</region>

<region>
end=57600
hivel=42
key=A#3
lovel=0
offset=8926
sample=Basstrombone_staccato_PP_A#3_RR4.opus
tune=-12
</region>

<region>
end=57600
hivel=42
key=A#2
lovel=0
offset=10252
sample=Basstrombone_staccato_PP_A#2_RR4.opus
tune=-7
</region>

<region>
end=57600
hivel=42
key=A#1
lovel=0
offset=8859
sample=Basstrombone_staccato_PP_A#1_RR4.opus
tune=-14
</region>

<region>
end=57600
hivel=84
key=G3
lovel=43
offset=5741
sample=Basstrombone_staccato_MF_G3_RR4.opus
tune=-22
</region>

<region>
end=57600
hivel=84
key=G2
lovel=43
offset=6223
sample=Basstrombone_staccato_MF_G2_RR4.opus
tune=-15
</region>

<region>
end=57600
hivel=84
key=G1
lovel=43
offset=7531
sample=Basstrombone_staccato_MF_G1_RR4.opus
tune=-14
</region>

<region>
end=57600
hivel=84
key=G#3
lovel=43
offset=6575
sample=Basstrombone_staccato_MF_G#3_RR4.opus
tune=-9
</region>

<region>
end=57600
hivel=84
key=G#2
lovel=43
offset=7415
sample=Basstrombone_staccato_MF_G#2_RR4.opus
tune=-8
</region>

<region>
end=57600
hivel=84
key=G#1
lovel=43
offset=6437
sample=Basstrombone_staccato_MF_G#1_RR4.opus
tune=-23
</region>

<region>
end=57600
hivel=84
key=F3
lovel=43
offset=7635
sample=Basstrombone_staccato_MF_F3_RR4.opus
tune=-17
</region>

<region>
end=57600
hivel=84
key=F2
lovel=43
offset=6920
sample=Basstrombone_staccato_MF_F2_RR4.opus
tune=+3
</region>

<region>
end=57600
hivel=84
key=F1
lovel=43
offset=6313
sample=Basstrombone_staccato_MF_F1_RR4.opus
tune=-3
</region>

<region>
end=57600
hivel=84
key=F#3
lovel=43
offset=7540
sample=Basstrombone_staccato_MF_F#3_RR4.opus
tune=-17
</region>

<region>
end=57600
hivel=84
key=F#2
lovel=43
offset=7308
sample=Basstrombone_staccato_MF_F#2_RR4.opus
tune=-15
</region>

<region>
end=57600
hivel=84
key=F#1
lovel=43
offset=7134
sample=Basstrombone_staccato_MF_F#1_RR4.opus
tune=-21
</region>

<region>
end=57600
hivel=84
key=E3
lovel=43
offset=6746
sample=Basstrombone_staccato_MF_E3_RR4.opus
tune=-22
</region>

<region>
end=57600
hivel=84
key=E2
lovel=43
offset=4131
sample=Basstrombone_staccato_MF_E2_RR4.opus
tune=-5
</region>

<region>
end=57600
hikey=E1
hivel=84
lokey=A#0
lovel=43
offset=2924
pitch_keycenter=E1
sample=Basstrombone_staccato_MF_E1_RR4.opus
tune=-19
</region>

<region>
end=57600
hivel=84
key=D3
lovel=43
offset=932
sample=Basstrombone_staccato_MF_D3_RR4.opus
tune=-12
</region>

<region>
end=57600
hivel=84
key=D2
lovel=43
offset=5838
sample=Basstrombone_staccato_MF_D2_RR4.opus
tune=-10
</region>

<region>
end=57600
hivel=84
key=D#3
lovel=43
offset=7675
sample=Basstrombone_staccato_MF_D#3_RR4.opus
tune=-19
</region>

<region>
end=57600
hivel=84
key=D#2
lovel=43
offset=4757
sample=Basstrombone_staccato_MF_D#2_RR4.opus
tune=-13
</region>

<region>
end=57600
hikey=D#5
hivel=84
lokey=C4
lovel=43
offset=6844
sample=Basstrombone_staccato_MF_C4_RR4.opus
</region>

<region>
end=57600
hivel=84
key=C3
lovel=43
offset=6884
sample=Basstrombone_staccato_MF_C3_RR4.opus
tune=-6
</region>

<region>
end=57600
hivel=84
key=C2
lovel=43
offset=7175
sample=Basstrombone_staccato_MF_C2_RR4.opus
tune=-6
</region>

<region>
end=57600
hivel=84
key=C#3
lovel=43
offset=6668
sample=Basstrombone_staccato_MF_C#3_RR4.opus
tune=-15
</region>

<region>
end=57600
hivel=84
key=C#2
lovel=43
offset=7008
sample=Basstrombone_staccato_MF_C#2_RR4.opus
tune=-13
</region>

<region>
end=57600
hivel=84
key=B3
lovel=43
offset=8465
sample=Basstrombone_staccato_MF_B3_RR4.opus
tune=-12
</region>

<region>
end=57600
hivel=84
key=B2
lovel=43
offset=6488
sample=Basstrombone_staccato_MF_B2_RR4.opus
tune=-15
</region>

<region>
end=57600
hivel=84
key=B1
lovel=43
offset=3067
sample=Basstrombone_staccato_MF_B1_RR4.opus
tune=-37
</region>

<region>
end=57600
hivel=84
key=A3
lovel=43
offset=6669
sample=Basstrombone_staccato_MF_A3_RR4.opus
tune=-16
</region>

<region>
end=57600
hivel=84
key=A2
lovel=43
offset=7173
sample=Basstrombone_staccato_MF_A2_RR4.opus
tune=-19
</region>

<region>
end=57600
hivel=84
key=A1
lovel=43
offset=8739
sample=Basstrombone_staccato_MF_A1_RR4.opus
tune=-27
</region>

<region>
end=57600
hivel=84
key=A#3
lovel=43
offset=5991
sample=Basstrombone_staccato_MF_A#3_RR4.opus
tune=-18
</region>

<region>
end=57600
hivel=84
key=A#2
lovel=43
offset=6547
sample=Basstrombone_staccato_MF_A#2_RR4.opus
tune=-7
</region>

<region>
end=57600
hivel=84
key=A#1
lovel=43
offset=8595
sample=Basstrombone_staccato_MF_A#1_RR4.opus
tune=-18
</region>

<region>
end=57600
hivel=127
key=G3
lovel=85
offset=3072
sample=Basstrombone_staccato_FF_G3_RR4.opus
tune=-16
</region>

<region>
end=57600
hivel=127
key=G2
lovel=85
offset=1718
sample=Basstrombone_staccato_FF_G2_RR4.opus
tune=-18
</region>

<region>
end=57600
hivel=127
key=G1
lovel=85
offset=1610
sample=Basstrombone_staccato_FF_G1_RR4.opus
tune=-32
</region>

<region>
end=57600
hivel=127
key=G#3
lovel=85
offset=1615
sample=Basstrombone_staccato_FF_G#3_RR4.opus
tune=-10
</region>

<region>
end=57600
hivel=127
key=G#2
lovel=85
offset=3989
sample=Basstrombone_staccato_FF_G#2_RR4.opus
tune=-9
</region>

<region>
end=57600
hivel=127
key=G#1
lovel=85
offset=4494
sample=Basstrombone_staccato_FF_G#1_RR4.opus
tune=-8
</region>

<region>
end=57600
hivel=127
key=F3
lovel=85
offset=496
sample=Basstrombone_staccato_FF_F3_RR4.opus
tune=-13
</region>

<region>
end=57600
hivel=127
key=F2
lovel=85
offset=970
sample=Basstrombone_staccato_FF_F2_RR4.opus
tune=-6
</region>

<region>
end=57600
hivel=127
key=F1
lovel=85
offset=2639
sample=Basstrombone_staccato_FF_F1_RR4.opus
tune=-7
</region>

<region>
end=57600
hivel=127
key=F#3
lovel=85
offset=2832
sample=Basstrombone_staccato_FF_F#3_RR4.opus
tune=-9
</region>

<region>
end=57600
hivel=127
key=F#2
lovel=85
offset=4113
sample=Basstrombone_staccato_FF_F#2_RR4.opus
tune=-10
</region>

<region>
end=57600
hivel=127
key=F#1
lovel=85
offset=3953
sample=Basstrombone_staccato_FF_F#1_RR4.opus
tune=-36
</region>

<region>
end=57600
hivel=127
key=E3
lovel=85
offset=4423
sample=Basstrombone_staccato_FF_E3_RR4.opus
tune=-12
</region>

<region>
end=57600
hivel=127
key=E2
lovel=85
offset=2389
sample=Basstrombone_staccato_FF_E2_RR4.opus
tune=-19
</region>

<region>
end=57600
hikey=E1
hivel=127
lokey=A#0
lovel=85
offset=3708
pitch_keycenter=E1
sample=Basstrombone_staccato_FF_E1_RR4.opus
tune=-33
</region>

<region>
end=57600
hivel=127
key=D3
lovel=85
offset=3277
sample=Basstrombone_staccato_FF_D3_RR4.opus
tune=-9
</region>

<region>
end=57600
hivel=127
key=D2
lovel=85
offset=3631
sample=Basstrombone_staccato_FF_D2_RR4.opus
tune=-20
</region>

<region>
end=57600
hivel=127
key=D#3
lovel=85
offset=1581
sample=Basstrombone_staccato_FF_D#3_RR4.opus
tune=-21
</region>

<region>
end=57600
hivel=127
key=D#2
lovel=85
offset=1005
sample=Basstrombone_staccato_FF_D#2_RR4.opus
tune=-5
</region>

<region>
end=57600
hikey=D#5
hivel=127
lokey=C4
lovel=85
offset=7386
sample=Basstrombone_staccato_FF_C4_RR4.opus
tune=-8
</region>

<region>
end=57600
hivel=127
key=C3
lovel=85
offset=1708
sample=Basstrombone_staccato_FF_C3_RR4.opus
tune=-8
</region>

<region>
end=57600
hivel=127
key=C2
lovel=85
offset=3025
sample=Basstrombone_staccato_FF_C2_RR4.opus
tune=-15
</region>

<region>
end=57600
hivel=127
key=C#3
lovel=85
offset=3410
sample=Basstrombone_staccato_FF_C#3_RR4.opus
tune=-18
</region>

<region>
end=57600
hivel=127
key=C#2
lovel=85
offset=2055
sample=Basstrombone_staccato_FF_C#2_RR4.opus
tune=-20
</region>

<region>
end=57600
hivel=127
key=B3
lovel=85
offset=5277
sample=Basstrombone_staccato_FF_B3_RR4.opus
tune=-14
</region>

<region>
end=57600
hivel=127
key=B2
lovel=85
offset=3013
sample=Basstrombone_staccato_FF_B2_RR4.opus
tune=-26
</region>

<region>
end=57600
hivel=127
key=B1
lovel=85
offset=3436
sample=Basstrombone_staccato_FF_B1_RR4.opus
tune=-18
</region>

<region>
end=57600
hivel=127
key=A3
lovel=85
offset=4279
sample=Basstrombone_staccato_FF_A3_RR4.opus
tune=-17
</region>

<region>
end=57600
hivel=127
key=A2
lovel=85
offset=1724
sample=Basstrombone_staccato_FF_A2_RR4.opus
tune=-18
</region>

<region>
end=57600
hivel=127
key=A1
lovel=85
offset=1967
sample=Basstrombone_staccato_FF_A1_RR4.opus
tune=-7
</region>

<region>
end=57600
hivel=127
key=A#3
lovel=85
offset=1070
sample=Basstrombone_staccato_FF_A#3_RR4.opus
tune=-13
</region>

<region>
end=57600
hivel=127
key=A#2
lovel=85
offset=2453
sample=Basstrombone_staccato_FF_A#2_RR4.opus
tune=-11
</region>

<region>
end=57600
hivel=127
key=A#1
lovel=85
offset=3671
sample=Basstrombone_staccato_FF_A#1_RR4.opus
tune=-13
</region>
</group>